<?xml version="1.0" encoding="iso-8859-1"?>
<!-- Uploaded to: SVG Repo, www.svgrepo.com, Generator: SVG Repo Mixer Tools -->
<!DOCTYPE svg PUBLIC "-//W3C//DTD SVG 1.1//EN" "http://www.w3.org/Graphics/SVG/1.1/DTD/svg11.dtd">
<svg fill="#000000" version="1.1" id="Capa_1" xmlns="http://www.w3.org/2000/svg" xmlns:xlink="http://www.w3.org/1999/xlink" 
	 width="800px" height="800px" viewBox="0 0 45.584 45.584"
	 xml:space="preserve">
<g>
	<g>
		<path d="M40.105,1.395c-0.073-0.84-0.812-1.46-1.652-1.389l-14.92,1.298c-0.726,0.063-1.306,0.63-1.386,1.354l-0.469,4.265H7
			c-0.413,0-0.808,0.154-1.095,0.45C5.618,7.668,5.462,8.056,5.473,8.467l1.019,35.633c0.023,0.826,0.7,1.483,1.526,1.483h19.344
			c0.826,0,1.503-0.654,1.527-1.48l1.018-35.63c0.012-0.413-0.144-0.806-0.432-1.102c-0.287-0.296-0.684-0.45-1.095-0.45h-3.63
			l0.296-2.685l13.67-1.189C39.557,2.975,40.179,2.234,40.105,1.395z M26.809,9.925L25.877,42.52H9.501L8.57,9.925h12.776
			l-0.807,7.34h-9.624l1.019,22.597h11.51l1.02-22.597h-0.852l0.809-7.34H26.809z M15.696,31.092l3.326,2.351l-2.35,3.325
			l-3.326-2.35L15.696,31.092z M12.789,22.456l2.88-2.88l2.879,2.88l-2.879,2.88L12.789,22.456z M18.224,30.616v-4.045h4.045v4.045
			H18.224z"/>
	</g>
</g>
</svg>