<?xml version="1.0" encoding="iso-8859-1"?>
<!-- Uploaded to: SVG Repo, www.svgrepo.com, Generator: SVG Repo Mixer Tools -->
<!DOCTYPE svg PUBLIC "-//W3C//DTD SVG 1.1//EN" "http://www.w3.org/Graphics/SVG/1.1/DTD/svg11.dtd">
<svg fill="#000000" height="800px" width="800px" version="1.1" id="Capa_1" xmlns="http://www.w3.org/2000/svg" xmlns:xlink="http://www.w3.org/1999/xlink" 
	 viewBox="0 0 297 297" xml:space="preserve">
<path d="M19.592,161.909H9.884c-5.458,0-9.884,4.426-9.884,9.884c0,5.458,4.426,9.884,9.884,9.884h128.732v61.771h-22.731
	c-5.458,0-9.884,4.426-9.884,9.884s4.426,9.884,9.884,9.884h65.23c5.458,0,9.884-4.426,9.884-9.884s-4.426-9.884-9.884-9.884
	h-22.731v-61.771h128.732c5.458,0,9.884-4.426,9.884-9.884c0-5.458-4.426-9.884-9.884-9.884h-9.707l8.12-34.475
	c5.159-0.331,9.246-4.608,9.246-9.852c0-35.284-26.518-64.451-60.601-68.537c1.018-1.552,1.613-3.407,1.613-5.402
	c0-5.443-4.398-9.859-9.819-9.859c-5.423,0-9.822,4.416-9.822,9.859c0,1.996,0.597,3.851,1.614,5.404
	c-11.217,1.347-21.608,5.41-30.509,11.518c-8.907-6.115-19.317-10.174-30.547-11.521c1.018-1.552,1.612-3.407,1.612-5.402
	c0-5.443-4.395-9.859-9.815-9.859c-5.423,0-9.819,4.416-9.819,9.859c0,1.995,0.595,3.85,1.612,5.402
	c-11.224,1.346-21.628,5.4-30.532,11.511c-8.903-6.109-19.303-10.168-30.521-11.515c1.016-1.552,1.61-3.405,1.61-5.398
	c0-5.443-4.398-9.859-9.822-9.859c-5.424,0-9.82,4.416-9.82,9.859c0,1.995,0.596,3.85,1.613,5.403
	c-34.083,4.086-60.6,33.253-60.6,68.536c0,5.244,4.088,9.521,9.248,9.852L19.592,161.909z M274.475,110.303
	c-0.968,0.535-1.773,1.073-2.444,1.523c-1.19,0.795-1.19,0.795-1.875,0.795c-0.755,0-0.755,0-1.982-0.796
	c-2.296-1.49-6.138-3.985-12.748-3.985c-6.61,0-10.452,2.494-12.747,3.984c-1.229,0.797-1.229,0.797-1.984,0.797
	c-0.756,0-0.756,0-1.984-0.797c-2.296-1.49-6.137-3.984-12.747-3.984c-3.934,0-6.882,0.885-9.112,1.915
	c-1.497-13.242-6.74-25.354-14.64-35.251c7.043-3.941,15.141-6.197,23.758-6.197C250.548,68.306,270.962,86.57,274.475,110.303z
	 M106.287,111.823c-1.228,0.797-1.228,0.797-1.983,0.797c-0.682,0-0.682,0-1.87-0.794c-0.672-0.448-1.474-0.985-2.438-1.52
	c3.51-23.735,23.925-42.001,48.505-42.001c24.579,0,44.993,18.266,48.505,41.999c-0.966,0.534-1.769,1.071-2.44,1.52
	c-1.192,0.796-1.192,0.796-1.88,0.796c-0.758,0-0.758,0-1.985-0.797c-2.296-1.49-6.138-3.984-12.745-3.984
	c-6.61,0-10.452,2.494-12.748,3.984c-1.228,0.797-1.228,0.797-1.982,0.797c-0.756,0-0.756,0-1.983-0.797
	c-2.295-1.49-6.137-3.984-12.745-3.984c-6.61,0-10.453,2.494-12.749,3.983c-1.229,0.798-1.229,0.798-1.986,0.798
	c-0.752,0-0.752,0-1.977-0.795c-2.297-1.491-6.138-3.986-12.749-3.986C112.425,107.839,108.583,110.333,106.287,111.823z
	 M71.029,68.306c8.618,0,16.714,2.259,23.756,6.201c-7.897,9.897-13.141,22.01-14.637,35.253c-2.23-1.032-5.183-1.921-9.123-1.921
	c-6.61,0-10.452,2.494-12.748,3.984c-1.228,0.797-1.228,0.797-1.982,0.797c-0.753,0-0.753,0-1.979-0.796
	c-2.296-1.49-6.137-3.985-12.749-3.985c-6.613,0-10.456,2.495-12.753,3.986c-1.225,0.795-1.225,0.795-1.977,0.795
	c-0.683,0-0.683,0-1.872-0.794c-0.672-0.449-1.476-0.986-2.441-1.521C26.035,86.571,46.45,68.306,71.029,68.306z M47.564,161.909
	c-4.079,0-8.795-3.76-9.704-7.734l-5.152-22.533c3.185-0.853,5.364-2.259,6.869-3.238c1.23-0.798,1.23-0.798,1.989-0.798
	c0.757,0,0.757,0,1.985,0.798c2.295,1.49,6.135,3.983,12.743,3.983s10.45-2.493,12.746-3.983c1.228-0.798,1.228-0.798,1.984-0.798
	c0.751,0,0.751,0,1.977,0.796c2.295,1.49,6.138,3.985,12.75,3.985c1.562,0,2.964-0.143,4.232-0.375l6.074,26.568
	c0.227,0.993,0.519,1.969,0.856,2.925c-0.81,0.259-1.627,0.404-2.42,0.404H47.564z M125.031,161.909
	c-4.079,0-8.795-3.76-9.704-7.734l-5.15-22.532c3.185-0.854,5.367-2.261,6.875-3.239c1.227-0.798,1.227-0.798,1.982-0.798
	c0.756,0,0.756,0,1.982,0.796c2.295,1.49,6.136,3.985,12.743,3.985c6.609,0,10.452-2.493,12.747-3.983
	c1.229-0.798,1.229-0.798,1.988-0.798c0.755,0,0.755,0,1.981,0.796c2.296,1.49,6.138,3.985,12.747,3.985
	c6.609,0,10.451-2.493,12.746-3.983c1.229-0.798,1.229-0.798,1.984-0.798c0.754,0,0.754,0,1.981,0.796
	c1.509,0.981,3.693,2.391,6.888,3.244l-5.153,22.529c-0.908,3.975-5.624,7.734-9.703,7.734H125.031z M202.504,161.909
	c-0.792,0-1.608-0.156-2.417-0.415c0.336-0.953,0.627-1.925,0.853-2.914l6.078-26.575c1.269,0.232,2.658,0.382,4.22,0.382
	c6.608,0,10.45-2.495,12.745-3.985c1.227-0.796,1.227-0.796,1.98-0.796c0.756,0,0.756,0,1.983,0.798
	c2.297,1.49,6.139,3.983,12.748,3.983c6.61,0,10.452-2.493,12.748-3.983c1.228-0.798,1.228-0.798,1.983-0.798
	c0.757,0,0.757,0,1.984,0.798c1.509,0.979,3.69,2.388,6.881,3.241l-5.15,22.528c-0.909,3.977-5.625,7.736-9.704,7.736H202.504z"/>
</svg>