<svg id="Layer_1" data-name="Layer 1" xmlns="http://www.w3.org/2000/svg" viewBox="0 0 88.46 122.88">
    <title>mobile-wallet</title>
    <path fill="#fff" class="cls-1"
          d="M14.2,0H55.7A14.2,14.2,0,0,1,69.9,14.2V27.47H66.05v-12H3.83v87.67H66.05V94H69.9v14.66a14.2,14.2,0,0,1-14.2,14.2H14.2A14.2,14.2,0,0,1,0,108.68V14.18A14.17,14.17,0,0,1,14.2,0Zm58,52.86H85a3.52,3.52,0,0,1,3.5,3.5V70.72a3.51,3.51,0,0,1-3.5,3.5H72.17A10.71,10.71,0,0,1,61.49,63.54h0A10.72,10.72,0,0,1,72.17,52.86Zm4.09-14.41a2.39,2.39,0,0,1,2,2.4V41c-.22,0-.44,0-.67,0H42.93a.78.78,0,0,0-.78.78V45H77a2.91,2.91,0,0,1,2.91,2.9v2.56h3.93v-3.3A6.21,6.21,0,0,0,81,42V41a6.41,6.41,0,0,0-6.19-6.42H36.71a5.64,5.64,0,0,0-5.62,5.62v41.1A5.63,5.63,0,0,0,36.7,86.9H78.21c2.81,0,5.67-2.15,5.68-4.83h0V76.78h-4v3.77a2.05,2.05,0,0,1-2.05,2H37.23a2,2,0,0,1-2-2v-40a2,2,0,0,1,2-2ZM72.71,56.78H83.89V70.32H72.71a6.79,6.79,0,0,1-6.77-6.77h0a6.79,6.79,0,0,1,6.77-6.77Zm3.1,4.52a2.31,2.31,0,1,1-2.31,2.31,2.31,2.31,0,0,1,2.31-2.31ZM34.93,107.6a5.84,5.84,0,1,1-5.84,5.84,5.83,5.83,0,0,1,5.84-5.84Z"/>
</svg>