<?xml version="1.0" encoding="iso-8859-1"?>
<!-- Uploaded to: SVG Repo, www.svgrepo.com, Generator: SVG Repo Mixer Tools -->
<svg fill="#000000" height="800px" width="800px" version="1.1" id="Layer_1" xmlns="http://www.w3.org/2000/svg" xmlns:xlink="http://www.w3.org/1999/xlink" 
	 viewBox="0 0 511.996 511.996" xml:space="preserve">
<g>
	<g>
		<path d="M383.998,486.396h-332.8c-7.074,0-12.8,5.726-12.8,12.8c0,7.074,5.726,12.8,12.8,12.8h332.8c7.074,0,12.8-5.726,12.8-12.8
			C396.798,492.122,391.072,486.396,383.998,486.396z"/>
	</g>
</g>
<g>
	<g>
		<path d="M396.798,243.196c-5.325,0-10.402,0.845-15.386,1.98c-4.096-8.678-12.783-14.78-23.014-14.78h-281.6
			c-14.14,0-25.6,11.46-25.6,25.6v51.2c0,64.87,38.212,124.245,97.348,151.279c3.345,1.527,6.972,2.321,10.65,2.321h116.813
			c3.669,0,7.305-0.794,10.641-2.321c32.734-14.967,58.701-40.038,75.682-70.263c10.368,5.367,21.99,8.585,34.466,8.585
			c42.351,0,76.8-34.449,76.8-76.8S439.149,243.196,396.798,243.196z M358.398,307.196c0,56.9-33.818,105.796-82.398,128H159.196
			c-48.58-22.204-82.398-71.1-82.398-128c0-13.329,0-51.2,0-51.2h281.6C358.398,255.996,358.398,293.867,358.398,307.196z
			 M396.798,371.196c-8.61,0-16.597-2.355-23.714-6.144c6.852-18.278,10.914-37.726,10.914-57.856v-36.591
			c4.087-1.126,8.354-1.809,12.8-1.809c28.228,0,51.2,22.972,51.2,51.2C447.998,348.224,425.026,371.196,396.798,371.196z"/>
	</g>
</g>
<g>
	<g>
		<path d="M178.276,97.651c-13.978-34.953-21.128-57.498-2.825-75.802c5.001-5.001,5.001-13.099,0-18.099
			c-5-5.001-13.099-5.001-18.099,0c-31.573,31.573-16.299,69.726-2.825,103.398c13.969,34.944,21.12,57.498,2.816,75.793
			c-5.001,5.001-5.001,13.099,0,18.099c2.5,2.509,5.777,3.755,9.054,3.755s6.554-1.246,9.054-3.746
			C207.025,169.476,191.75,131.324,178.276,97.651z"/>
	</g>
</g>
<g>
	<g>
		<path d="M229.476,97.651c-13.978-34.953-21.129-57.498-2.825-75.802c5.001-5.001,5.001-13.099,0-18.099
			c-5.001-5.001-13.099-5.001-18.099,0c-31.573,31.573-16.299,69.726-2.825,103.398c13.969,34.944,21.12,57.498,2.816,75.793
			c-5.001,5.001-5.001,13.099,0,18.099c2.5,2.509,5.777,3.755,9.054,3.755c3.277,0,6.554-1.246,9.054-3.746
			C258.225,169.476,242.95,131.324,229.476,97.651z"/>
	</g>
</g>
<g>
	<g>
		<path d="M280.676,97.651c-13.978-34.953-21.128-57.498-2.825-75.802c5.001-5.001,5.001-13.099,0-18.099
			c-5-5.001-13.099-5.001-18.099,0c-31.573,31.573-16.299,69.726-2.825,103.398c13.969,34.944,21.12,57.498,2.816,75.793
			c-5.001,5.001-5.001,13.099,0,18.099c2.5,2.509,5.777,3.755,9.054,3.755c3.277,0,6.554-1.246,9.054-3.746
			C309.425,169.476,294.15,131.324,280.676,97.651z"/>
	</g>
</g>
<g>
	<g>
		<path d="M268.346,360.12l-25.165-14.524l25.165-14.524c6.127-3.524,8.226-11.349,4.676-17.476
			c-3.524-6.153-11.375-8.226-17.476-4.676l-25.148,14.515v-29.039c0-7.074-5.726-12.8-12.8-12.8c-7.074,0-12.8,5.726-12.8,12.8
			v29.039l-25.148-14.515c-6.101-3.524-13.952-1.451-17.476,4.676c-3.55,6.127-1.451,13.952,4.676,17.476l25.165,14.524
			L166.85,360.12c-6.127,3.524-8.226,11.349-4.676,17.476c2.347,4.096,6.673,6.4,11.076,6.4c2.176,0,4.378-0.546,6.4-1.724
			l25.148-14.515v29.039c0,7.074,5.726,12.8,12.8,12.8c7.074,0,12.8-5.726,12.8-12.8v-29.039l25.148,14.515
			c2.031,1.178,4.224,1.724,6.4,1.724c4.403,0,8.721-2.304,11.076-6.4C276.572,371.469,274.473,363.644,268.346,360.12z"/>
	</g>
</g>
</svg>